<svg xmlns="http://www.w3.org/2000/svg" viewBox="0 0 1920 1080"><defs><style>.cls-1{fill:#ee273e;}.cls-2{fill:#575858;}.cls-3{fill:#131112;}.cls-4{fill:#efa3a3;}.cls-5{fill:#231f20;}</style></defs><title>roadmapfromillustrator</title><g id="Layer_2" data-name="Layer 2"><path class="cls-1" d="M.92,860.64q0-428-.1-856C.82.85,1.67,0,5.43,0Q963.87.15,1922.3,0c3.76,0,4.61.85,4.61,4.61q-.15,474.15-.1,948.3c-4.17,0-8.35,0-12.52,0-72.37.51-144.73-.12-217-3q-23-.93-46-2.25-31.74-1.75-63.48-3.75-17-1-34-2.3-24.19-1.79-48.39-3.71-20.45-1.6-40.88-3.33c-13.78-1.18-27.56-2.44-41.34-3.69-12-1.08-23.9-2.15-35.84-3.31-15.76-1.52-31.5-3.13-47.25-4.71-14.25-1.43-28.51-2.81-42.75-4.31s-28.47-3.16-42.71-4.69c-13.91-1.49-27.83-2.85-41.74-4.35-14.07-1.52-28.13-3.14-42.19-4.7L1131,900.41c-13.73-1.54-27.46-3.11-41.19-4.63-13.24-1.47-26.48-2.89-39.72-4.36-13.9-1.54-27.79-3.14-41.69-4.67-13.4-1.48-26.82-2.9-40.23-4.35q-21.6-2.34-43.2-4.67-21.12-2.25-42.25-4.39c-15.24-1.56-30.48-3.16-45.74-4.63-15.59-1.5-31.19-2.86-46.79-4.3-17.1-1.57-34.18-3.25-51.29-4.7-14.28-1.22-28.6-2.15-42.89-3.26-15.8-1.23-31.58-2.67-47.39-3.75-18-1.23-36-2.17-54-3.22-21.83-1.29-43.65-2.74-65.49-3.78-24-1.15-48.07-1.94-72.1-2.83-6-.22-12-.9-18,.21-8.4,1.57-16.8,2.84-25.36,2.5-20.53-.82-41.05-1.68-61.6-.58-4.48-.88-9-.28-13.49-.32-14.13-.14-28.19-2.67-42.38-1.14-8.11.88-16.26,1.78-24.4,2-20,.42-40-.17-60,.87-18.62,1-37.33-.37-56,.57-9.66-.2-19.24.92-28.85,1.67-18.4,1.45-36.84,2.47-55.2,4.25C48.08,855.15,24.51,858,.92,860.64Z"/><path class="cls-2" d="M155.75,846.93c18.67-.94,37.38.41,56-.57,20-1,40-.45,60-.87,8.14-.17,16.29-1.07,24.4-2,14.19-1.53,28.25,1,42.38,1.14,4.49,0,9-.56,13.49.32,12.44,5.74,24.9,11.44,37.31,17.22,31.12,14.5,62.94,26.95,96.57,34.47,53,11.86,106.81,14.56,160.77,15.84,34.58.82,69.19.52,103.79.86,47.64.47,95.16,2.52,142.59,7.12,40.56,3.93,80.92,9.28,121.17,15.51,60.23,9.32,120.15,20.47,180.13,31.2,58,10.37,116.13,20.19,174.62,27.49,42.24,5.27,84.62,9.24,127.08,12.46,36.14,2.75,72.32,4.85,108.51,6.63s72.44,3,108.68,4c45.27,1.27,90.55,2.14,135.83,3.06,25.9.53,51.8.83,77.7,1.23,0,19.39,0,38.78.07,58.17,0,2.51-.57,3.49-3.08,3a8.34,8.34,0,0,0-1.5,0H650.91a30.65,30.65,0,0,0-3.33-1c-39.56-6.39-78.92-13.85-118-22.67-81.16-18.31-161.33-40.41-241.4-62.86a179.92,179.92,0,0,1-82.71-49.92c-24.51-25.69-40.23-56.36-50-90.29C154.49,853.25,154.17,850.11,155.75,846.93Z"/><path class="cls-3" d="M1926.81,1022.12c-25.9-.4-51.8-.7-77.7-1.23-45.28-.92-90.56-1.79-135.83-3.06-36.24-1-72.48-2.24-108.68-4s-72.37-3.88-108.51-6.63c-42.46-3.22-84.84-7.19-127.08-12.46-58.49-7.3-116.6-17.12-174.62-27.49-60-10.73-119.9-21.88-180.13-31.2-40.25-6.23-80.61-11.58-121.17-15.51-47.43-4.6-95-6.65-142.59-7.12-34.6-.34-69.21,0-103.79-.86-54-1.28-107.81-4-160.77-15.84-33.63-7.52-65.45-20-96.57-34.47C377,856.44,364.5,850.74,352.06,845c20.55-1.1,41.07-.24,61.6.58,8.56.34,17-.93,25.36-2.5,6-1.11,12-.43,18-.21,24,.89,48.07,1.68,72.1,2.83,21.84,1,43.66,2.49,65.49,3.78,18,1,36,2,54,3.22,15.81,1.08,31.59,2.52,47.39,3.75,14.29,1.11,28.61,2,42.89,3.26,17.11,1.45,34.19,3.13,51.29,4.7,15.6,1.44,31.2,2.8,46.79,4.3,15.26,1.47,30.5,3.07,45.74,4.63q21.14,2.17,42.25,4.39,21.6,2.29,43.2,4.67c13.41,1.45,26.83,2.87,40.23,4.35,13.9,1.53,27.79,3.13,41.69,4.67,13.24,1.47,26.48,2.89,39.72,4.36,13.73,1.52,27.46,3.09,41.19,4.63l39.72,4.39c14.06,1.56,28.12,3.18,42.19,4.7,13.91,1.5,27.83,2.86,41.74,4.35,14.24,1.53,28.46,3.19,42.71,4.69s28.5,2.88,42.75,4.31c15.75,1.58,31.49,3.19,47.25,4.71,11.94,1.16,23.89,2.23,35.84,3.31,13.78,1.25,27.56,2.51,41.34,3.69q20.43,1.74,40.88,3.33,24.19,1.9,48.39,3.71,17,1.26,34,2.3,31.74,2,63.48,3.75,23,1.29,46,2.25c72.32,2.92,144.68,3.55,217,3,4.17,0,8.35,0,12.52,0Z"/><path class="cls-3" d="M155.75,846.93c-1.58,3.18-1.26,6.32-.3,9.68,9.78,33.93,25.5,64.6,50,90.29a179.92,179.92,0,0,0,82.71,49.92c80.07,22.45,160.24,44.55,241.4,62.86,39.09,8.82,78.45,16.28,118,22.67a30.65,30.65,0,0,1,3.33,1q-322.74,0-645.48.09c-3.76,0-4.62-.85-4.61-4.61Q1,969.72.92,860.64c23.59-2.62,47.16-5.49,70.78-7.79,18.36-1.78,36.8-2.8,55.2-4.25C136.51,847.85,146.09,846.73,155.75,846.93Z"/><circle class="cls-4" cx="1668.51" cy="650.98" r="191.99"/></g><g id="Layer_1" data-name="Layer 1"><path d="M1735.8,1118.38h-4.48c-1.34-1.79-2.57-5-4-5.13-7.21-.53-14.47-.24-22.29-.24.7,2.28,1.17,3.83,1.64,5.37h-4.49c-1-3.21-2.35-6.35-2.87-9.63-3.92-24.43-12-47.26-26-67.78-8-11.69-14.78-23.77-15-39-4.83,1.63-5.14-.89-5.49-4.36a72.72,72.72,0,0,0-9.47-28.84c-6.6-11.7-11.63-24.46-15.94-37.23-3.79-11.2-5.67-23.06-8.39-34.63l-.89.19q.92,7.73,1.84,15.44l-2,.4-7.61-13.12c-3.32,16-6.49,31.3-9.9,47.71l-4.61-5.45c-1.3,32.93,13.07,58.25,37.15,79.06l-.87,2-17.4-1.39c3.62,7.65,8.23,15.46,11.11,23.86,8.26,24.11,15.82,48.46,23.65,72.71h-195.1c-.42-3.7-.27-7.57-1.35-11.07-7.38-23.93-10.41-49-20-72.38a191.73,191.73,0,0,1-8.8-26.32c-2.76-11.18-4.44-22.61-6.6-34l-4,5-1.47-.65c.1-1.32.3-2.64.27-4-.26-11.33,1.25-23.06-1.21-33.9-5.94-26.2-13.73-52-20.81-77.93a13.7,13.7,0,0,0-1.48-2.7c-4.67,4.41-8.9,8.61-13.39,12.51-1.2,1-3.19,1.14-4.82,1.68.12-1.73-.25-3.69.43-5.15,7.84-16.67,17.16-32.86,15.34-52.37-.2-2.19.45-4.45.7-6.68,1.53-13.42,1.77-26.67-2-39.94-2.63-9.33-.84-17.56,7.42-24.57,8.9-7.55,16.36-16.78,24.7-25,6.47-6.38,12.92-12.9,20.15-18.33,6.85-5.14,14.71-8.93,21.62-13l-19.59-18.25c3.28-.68,4.94-1.28,6.61-1.32,7.66-.16,15.37.4,23-.37a131.92,131.92,0,0,0,24-4.56c4.07-1.21,7.43-4.84,12.13-8.07-15.61-3.2-16.74-3.66-19.37-7.57.2-.29.35-.69.64-.85A3.68,3.68,0,0,1,1488,648c15.73-.76,29.07-6.38,40.28-17.86,4-4.15,5-7.94,4.88-13.26-.37-16.92-.86-33.89-.07-50.78.43-8.93,2.85-17.9,5.45-26.52,1.85-6.13,4.1-6.16,8.43-1.14,8.39,9.73,15.94,20.28,27.52,26.74,1.44.81,3.12,1.74,3.92,3.07,3.67,6.17,8.49,3.91,13,1.71,3.82-1.89,7.22-4.62,10.88-6.88,4.44-2.73,8.8-5.66,13.47-8,4.94-2.41,6.73-1.08,7.09,4.31.18,2.71.53,5.42.82,8.22a40.16,40.16,0,0,0,5.55,0c11.27-1.71,22.53-3.42,33.93-.89a3.66,3.66,0,0,0,2.92-1,124.32,124.32,0,0,0,10.17-11.86c2.84-4,4.9-8.62,8.11-14.43,1.5,2.9,3.12,4.68,3.32,6.61,1.28,12.41,2.08,24.87,3.39,37.28.54,5.13-.32,9.52-3.69,13.47-4,4.74-7.93,9.61-11.95,14.49,2.7,4.05,5,7.92,7.7,11.42,3.27,4.19,2.08,6.85-2,9.44-1.93,1.21-4.62,3.2-4.73,5-.37,6-2.49,12.73,4.18,17.29,1.93,1.33,3,3.84,4.85,5.39,6.93,5.9,13.51,12.46,21.23,17.09,4.66,2.81,4.3,4.69,2.15,8.08-5,7.87-9.67,16-15.25,23.39-2.89,3.86-7.33,6.59-11.21,9.64-3.3,2.6-7.17,4.57-10.14,7.47-7.21,7-13.47,15.53-25.17,12.24,2.47,4.17,5.84,7.83,6.92,12.08,3.1,12.26,5.54,24.7,7.76,37.15,5,28.13,6.56,57.4,27.41,80.12a3.77,3.77,0,0,1,.53,3.48c-.47.77-2.2,1.11-3.36,1.06a63.15,63.15,0,0,1-6.76-1c.42,1.64.62,2.52.88,3.39,3.19,10.67,6.93,21.21,9.47,32,5.32,22.72,6.6,46.5,18.23,67.53a3.64,3.64,0,0,1-.24,3.41c-.64.62-2.42.62-3.43.22-2.71-1.07-5.27-2.51-8.62-4.16,2.93,10,5.26,19.31,8.4,28.36,8.33,24,15.61,48.1,18.84,73.39A135.69,135.69,0,0,0,1735.8,1118.38Z"/></g><g id="Layer_3" data-name="Layer 3"><rect class="cls-3" x="-22.91" y="85.63" width="1973.56" height="16.41"/><circle class="cls-3" cx="573.03" cy="93.83" r="21.01"/><circle class="cls-3" cx="940.82" cy="93.83" r="21.01"/><path class="cls-5" d="M1634.43,138v1.28c-.48,0-.85.37-1.14,1.13a21.25,21.25,0,0,0-.77,2.61,22.31,22.31,0,0,0-.5,2.9c-.09,1-.14,1.61-.14,2v50.63c0,.47,0,1.18.14,2.12a20,20,0,0,0,.5,2.83,22.77,22.77,0,0,0,.77,2.54c.29.76.66,1.13,1.14,1.13v1.28h-15.28v-1.28c.38,0,.73-.37,1.06-1.13a15.42,15.42,0,0,0,.85-2.54,28.35,28.35,0,0,0,.57-2.83,15.82,15.82,0,0,0,.21-2.12V148.07h-2.69V146.8c.47,0,1.09-.45,1.84-1.34a32.92,32.92,0,0,0,2.26-3,47.37,47.37,0,0,0,3-4.39Z"/><path class="cls-5" d="M1662.14,137.75a13.23,13.23,0,0,1,5.09,1,12.54,12.54,0,0,1,6.93,6.93,13.23,13.23,0,0,1,1,5.09v44.69a13.23,13.23,0,0,1-1,5.09,12.54,12.54,0,0,1-6.93,6.93,13.23,13.23,0,0,1-5.09,1h-7.77a13.28,13.28,0,0,1-5.1-1,12.54,12.54,0,0,1-6.93-6.93,13.22,13.22,0,0,1-1-5.09V150.76a13.22,13.22,0,0,1,1-5.09,12.54,12.54,0,0,1,6.93-6.93,13.28,13.28,0,0,1,5.1-1Zm3,13a2.91,2.91,0,0,0-.85-2,2.76,2.76,0,0,0-2.12-.92h-7.77a2.87,2.87,0,0,0-2.06.92,2.83,2.83,0,0,0-.92,2v44.56a3,3,0,0,0,.92,2.19,2.87,2.87,0,0,0,2.06.92h7.77a2.76,2.76,0,0,0,2.12-.92,3.09,3.09,0,0,0,.85-2.19Z"/><path class="cls-5" d="M1702.44,137.75a13.23,13.23,0,0,1,5.09,1,12.59,12.59,0,0,1,4.18,2.76,12.78,12.78,0,0,1,2.75,4.17,13.23,13.23,0,0,1,1,5.09v44.69a13.23,13.23,0,0,1-1,5.09,12.78,12.78,0,0,1-2.75,4.17,12.59,12.59,0,0,1-4.18,2.76,13.23,13.23,0,0,1-5.09,1h-7.77a13.28,13.28,0,0,1-5.1-1,12.65,12.65,0,0,1-4.17-2.76,12.47,12.47,0,0,1-2.75-4.17,13,13,0,0,1-1-5.09V150.76a13,13,0,0,1,1-5.09,12.47,12.47,0,0,1,2.75-4.17,12.65,12.65,0,0,1,4.17-2.76,13.28,13.28,0,0,1,5.1-1Zm3,13a2.91,2.91,0,0,0-.85-2,2.76,2.76,0,0,0-2.12-.92h-7.77a2.84,2.84,0,0,0-2.05.92,2.79,2.79,0,0,0-.92,2v44.56a3,3,0,0,0,.92,2.19,2.84,2.84,0,0,0,2.05.92h7.77a2.76,2.76,0,0,0,2.12-.92,3.09,3.09,0,0,0,.85-2.19Z"/><path class="cls-5" d="M1732.14,165.75a6.22,6.22,0,0,1-4.67-1.91,6.4,6.4,0,0,1-1.84-4.59V144.54a6.44,6.44,0,0,1,1.84-4.6,6.22,6.22,0,0,1,4.67-1.91H1736a6.52,6.52,0,0,1,6.5,6.51v14.71a6.52,6.52,0,0,1-6.5,6.5Zm26.48-27.29-24.81,70h-6.76l24.81-70Zm-28,20.79q0,1.41,1.56,1.41H1736c1,0,1.55-.47,1.55-1.41V144.54A1.38,1.38,0,0,0,1736,143h-3.82a1.38,1.38,0,0,0-1.56,1.56Zm23,21.63a6.19,6.19,0,0,1,4.55,1.91,6.31,6.31,0,0,1,1.9,4.6V202a6.39,6.39,0,0,1-6.45,6.51h-3.93a6.37,6.37,0,0,1-6.45-6.51V187.39a6.3,6.3,0,0,1,1.89-4.6,6.19,6.19,0,0,1,4.56-1.91Zm1.5,6.51c0-1-.48-1.56-1.42-1.56h-4q-1.41,0-1.41,1.56V202q0,1.56,1.41,1.56h4c.94,0,1.42-.52,1.42-1.56Z"/><circle class="cls-3" cx="205.25" cy="93.83" r="21.01"/><circle class="cls-3" cx="1308.6" cy="93.83" r="21.01"/><circle class="cls-3" cx="1676.38" cy="93.83" r="21.01"/><circle class="cls-3" cx="1676.38" cy="93.83" r="31.51"/></g></svg>