<svg xmlns="http://www.w3.org/2000/svg" viewBox="0 0 1920 1080"><defs><style>.cls-1{fill:#ee273e;}.cls-2{fill:#575858;}.cls-3{fill:#131112;}.cls-4{fill:#efa3a3;}.cls-5{fill:#231f20;}</style></defs><title>roadmapfromillustrator</title><g id="Layer_2" data-name="Layer 2"><path class="cls-1" d="M.92,860.64q0-428-.1-856C.82.85,1.67,0,5.43,0Q963.87.15,1922.3,0c3.76,0,4.61.85,4.61,4.61q-.15,474.15-.1,948.3c-4.17,0-8.35,0-12.52,0-72.37.51-144.73-.12-217-3q-23-.93-46-2.25-31.74-1.75-63.48-3.75-17-1-34-2.3-24.19-1.79-48.39-3.71-20.45-1.6-40.88-3.33c-13.78-1.18-27.56-2.44-41.34-3.69-12-1.08-23.9-2.15-35.84-3.31-15.76-1.52-31.5-3.13-47.25-4.71-14.25-1.43-28.51-2.81-42.75-4.31s-28.47-3.16-42.71-4.69c-13.91-1.49-27.83-2.85-41.74-4.35-14.07-1.52-28.13-3.14-42.19-4.7L1131,900.41c-13.73-1.54-27.46-3.11-41.19-4.63-13.24-1.47-26.48-2.89-39.72-4.36-13.9-1.54-27.79-3.14-41.69-4.67-13.4-1.48-26.82-2.9-40.23-4.35q-21.6-2.34-43.2-4.67-21.12-2.25-42.25-4.39c-15.24-1.56-30.48-3.16-45.74-4.63-15.59-1.5-31.19-2.86-46.79-4.3-17.1-1.57-34.18-3.25-51.29-4.7-14.28-1.22-28.6-2.15-42.89-3.26-15.8-1.23-31.58-2.67-47.39-3.75-18-1.23-36-2.17-54-3.22-21.83-1.29-43.65-2.74-65.49-3.78-24-1.15-48.07-1.94-72.1-2.83-6-.22-12-.9-18,.21-8.4,1.57-16.8,2.84-25.36,2.5-20.53-.82-41.05-1.68-61.6-.58-4.48-.88-9-.28-13.49-.32-14.13-.14-28.19-2.67-42.38-1.14-8.11.88-16.26,1.78-24.4,2-20,.42-40-.17-60,.87-18.62,1-37.33-.37-56,.57-9.66-.2-19.24.92-28.85,1.67-18.4,1.45-36.84,2.47-55.2,4.25C48.08,855.15,24.51,858,.92,860.64Z"/><path class="cls-2" d="M155.75,846.93c18.67-.94,37.38.41,56-.57,20-1,40-.45,60-.87,8.14-.17,16.29-1.07,24.4-2,14.19-1.53,28.25,1,42.38,1.14,4.49,0,9-.56,13.49.32,12.44,5.74,24.9,11.44,37.31,17.22,31.12,14.5,62.94,26.95,96.57,34.47,53,11.86,106.81,14.56,160.77,15.84,34.58.82,69.19.52,103.79.86,47.64.47,95.16,2.52,142.59,7.12,40.56,3.93,80.92,9.28,121.17,15.51,60.23,9.32,120.15,20.47,180.13,31.2,58,10.37,116.13,20.19,174.62,27.49,42.24,5.27,84.62,9.24,127.08,12.46,36.14,2.75,72.32,4.85,108.51,6.63s72.44,3,108.68,4c45.27,1.27,90.55,2.14,135.83,3.06,25.9.53,51.8.83,77.7,1.23,0,19.39,0,38.78.07,58.17,0,2.51-.57,3.49-3.08,3a8.34,8.34,0,0,0-1.5,0H650.91a30.65,30.65,0,0,0-3.33-1c-39.56-6.39-78.92-13.85-118-22.67-81.16-18.31-161.33-40.41-241.4-62.86a179.92,179.92,0,0,1-82.71-49.92c-24.51-25.69-40.23-56.36-50-90.29C154.49,853.25,154.17,850.11,155.75,846.93Z"/><path class="cls-3" d="M1926.81,1022.12c-25.9-.4-51.8-.7-77.7-1.23-45.28-.92-90.56-1.79-135.83-3.06-36.24-1-72.48-2.24-108.68-4s-72.37-3.88-108.51-6.63c-42.46-3.22-84.84-7.19-127.08-12.46-58.49-7.3-116.6-17.12-174.62-27.49-60-10.73-119.9-21.88-180.13-31.2-40.25-6.23-80.61-11.58-121.17-15.51-47.43-4.6-95-6.65-142.59-7.12-34.6-.34-69.21,0-103.79-.86-54-1.28-107.81-4-160.77-15.84-33.63-7.52-65.45-20-96.57-34.47C377,856.44,364.5,850.74,352.06,845c20.55-1.1,41.07-.24,61.6.58,8.56.34,17-.93,25.36-2.5,6-1.11,12-.43,18-.21,24,.89,48.07,1.68,72.1,2.83,21.84,1,43.66,2.49,65.49,3.78,18,1,36,2,54,3.22,15.81,1.08,31.59,2.52,47.39,3.75,14.29,1.11,28.61,2,42.89,3.26,17.11,1.45,34.19,3.13,51.29,4.7,15.6,1.44,31.2,2.8,46.79,4.3,15.26,1.47,30.5,3.07,45.74,4.63q21.14,2.17,42.25,4.39,21.6,2.29,43.2,4.67c13.41,1.45,26.83,2.87,40.23,4.35,13.9,1.53,27.79,3.13,41.69,4.67,13.24,1.47,26.48,2.89,39.72,4.36,13.73,1.52,27.46,3.09,41.19,4.63l39.72,4.39c14.06,1.56,28.12,3.18,42.19,4.7,13.91,1.5,27.83,2.86,41.74,4.35,14.24,1.53,28.46,3.19,42.71,4.69s28.5,2.88,42.75,4.31c15.75,1.58,31.49,3.19,47.25,4.71,11.94,1.16,23.89,2.23,35.84,3.31,13.78,1.25,27.56,2.51,41.34,3.69q20.43,1.74,40.88,3.33,24.19,1.9,48.39,3.71,17,1.26,34,2.3,31.74,2,63.48,3.75,23,1.29,46,2.25c72.32,2.92,144.68,3.55,217,3,4.17,0,8.35,0,12.52,0Z"/><path class="cls-3" d="M155.75,846.93c-1.58,3.18-1.26,6.32-.3,9.68,9.78,33.93,25.5,64.6,50,90.29a179.92,179.92,0,0,0,82.71,49.92c80.07,22.45,160.24,44.55,241.4,62.86,39.09,8.82,78.45,16.28,118,22.67a30.65,30.65,0,0,1,3.33,1q-322.74,0-645.48.09c-3.76,0-4.62-.85-4.61-4.61Q1,969.72.92,860.64c23.59-2.62,47.16-5.49,70.78-7.79,18.36-1.78,36.8-2.8,55.2-4.25C136.51,847.85,146.09,846.73,155.75,846.93Z"/><path class="cls-4" d="M670.41,604.38a160.9,160.9,0,0,1,22.33-82q-6-.55-12.14-.56a132.33,132.33,0,1,0,87.89,231.24A161.69,161.69,0,0,1,670.41,604.38Z"/></g><g id="Layer_3" data-name="Layer 3"><path d="M812.16,1054c-.83-.91-2.43-1.88-2.81-3.2-3.1-10.63-6.71-21.2-8.71-32-2.33-12.71-3.2-25.69-4.7-38.56-.31-2.73-.59-5.47-.87-8.05l-4.67,1.42c0-1.71-.55-3.57-.07-5.1,2.11-6.62,1.32-13-.31-19.59-3.81-15.42-7.2-31-10.58-46.47-.51-2.36,0-4.93-.11-7.4-.31-9.63-.66-19.26-1-28.89L777,866c-2.62,5.21-5.46,10.34-7.8,15.68-4,9.14-7.63,18.45-11.56,27.62-2.85,6.67-6.14,13.16-8.82,19.9-1.58,3.94-1.88,8.41-3.57,12.3-3.22,7.43-7,14.61-10.33,22.15l5.4-6.36.84.42a9.7,9.7,0,0,1-.73,2.64,69.75,69.75,0,0,1-4.88,7.34c-10.82,13.41-14.9,30.44-24.21,44.69-3.92,6-6.58,12.85-9.81,19.31-.34.69-.47,1.58-1,2.07-9.67,9.18-3.48,17.71,3.84,25.49a28.1,28.1,0,0,0,7.91,5.62c3.21,1.61,3.73,3.92,3.78,7.13,0,3.58-2.77,3.68-4.8,4.72-3.44,1.76-6.91,3.49-10.48,5-5.34,2.19-8.4,1.54-11.77-3a82.55,82.55,0,0,0-20.53-19.92c-4.06-2.72-6.71-7.6-9.79-11.67a3.71,3.71,0,0,1,.08-3.29c2-3.62,4.73-6.91,6.33-10.68,1.09-2.6,1.87-6.3.81-8.6-1.71-3.72-.49-6.29.61-9.6,2.86-8.6,5.21-17.38,7.55-26.15s4.12-17.4,6.66-25.95c.68-2.28,3.25-4,4.93-6a54.33,54.33,0,0,0,3.48-4.26c4.56-6.72,6.44-15.09,12.92-20.71.95-.83.26-3.45.47-5.22,1.42-11.61,2.8-23.24,4.33-34.84,1.71-13,3.58-25.94,5.34-38.91,2.55-18.79,4.23-37.74,7.8-56.33,4.35-22.58,2.72-44.44-3.47-66.34A191.13,191.13,0,0,1,709.24,680c-.14-13.47,6.57-22.77,15.92-30.47,9-7.45,19-13.78,28.71-20.39,5.61-3.81,5.85-5.53.66-9.56-6.69-5.19-6.75-12.64-7.1-20,6.74-1.63,6.39-1.65,6.88-8.64.51-7.29,1.78-14.52,2.71-21.78l1.52.13c.5,1.9,1,3.8,1.67,6.3C772.1,565.08,786.63,560,802,553.47l-6.36,12.86h26.92c-1.71,1.9-3.12,3.46-4.55,5-.76.83-1.56,1.63-2.35,2.45,1,.81,1.89,2,3,2.38,5.91,1.75,11.89,3.26,17.84,4.89a13.26,13.26,0,0,1,2.14,1.55l-17.5,6.55c3.23,3.14,6.7,6.54,10.67,10.41-3.61,2-7.54,4.46-11.74,6.34-3.57,1.59-7,2.39-4.87,7.79.74,1.89-.71,4.77-1.48,7.08-3.63,10.94-3,13.26,5.89,20.21,2.28,1.8,4.27,4,6.63,5.67,13.52,9.52,14.74,22.51,10.79,37.1-2.65,9.81-5,19.71-7.82,29.47-3.73,12.83-5,25.58-2,38.85,2.18,9.89,3,20.08,4.43,30.14.08.58,0,1.52.37,1.69,5.37,2.75,2.5,7,2.14,10.84-.27,3,.1,6,.12,9.07q.39,48.06.75,96.11c0,5.89.68,11.87-.1,17.65-2.24,16.74,3.55,32.57,4.86,48.88,1.17,14.51,2.87,29,3.16,43.53.18,9.13,2.39,17.65,4.3,26.36.61,2.83,1.13,5.68,1.69,8.49l-5.73,1.74c4.41,5.15,9.68,7.16,15.28,8.1a65.18,65.18,0,0,0,13.87.88c4.38-.23,5.79,1.94,5.37,5.48a33.45,33.45,0,0,1-2.68,9.77,9.07,9.07,0,0,1-9.8,5.58c-7.22-.78-14.4-2.14-21.64-2.47a130.65,130.65,0,0,0-19.46.87c-4.77.5-7.4-2.16-9.2-5.57a53.08,53.08,0,0,1-3.82-11C810.85,1057.14,811.72,1055.7,812.16,1054Z"/><circle class="cls-3" cx="940.82" cy="93.83" r="31.51"/><rect class="cls-3" x="-22.91" y="85.63" width="1973.56" height="16.41"/><circle class="cls-3" cx="573.03" cy="93.83" r="21.01"/><circle class="cls-3" cx="940.82" cy="93.83" r="21.01"/><path class="cls-5" d="M914.48,163.78a12.39,12.39,0,0,1,6.89,6.93,13.41,13.41,0,0,1,1,5.09v20.64a13.23,13.23,0,0,1-1,5.09,12.45,12.45,0,0,1-2.76,4.17,13.49,13.49,0,0,1-4.17,2.83,12.42,12.42,0,0,1-5.09,1.06h-7.78a12.42,12.42,0,0,1-5.09-1.06,13.49,13.49,0,0,1-4.17-2.83,12.45,12.45,0,0,1-2.76-4.17,13.23,13.23,0,0,1-1-5.09V182.58h12.73v1.13c-.47,0-.87.36-1.2,1.07a10.9,10.9,0,0,0-.78,2.4c-.19.9-.35,1.79-.49,2.69a13.35,13.35,0,0,0-.22,1.76v4.81a3,3,0,0,0,.91,2.19,2.93,2.93,0,0,0,2.17.92h7.7a2.77,2.77,0,0,0,2-.92,3,3,0,0,0,.91-2.19V175.8a3.16,3.16,0,0,0-3-3H888.55V139.17h31.68V151.9H919c0-.38-.4-.76-1.2-1.13a10.89,10.89,0,0,0-2.74-.85c-1-.19-2-.36-2.95-.5a16.58,16.58,0,0,0-1.82-.21H898.59v13.58h10.83A13.08,13.08,0,0,1,914.48,163.78Z"/><path class="cls-5" d="M950.07,138.89a13.26,13.26,0,0,1,5.09,1,12.78,12.78,0,0,1,4.17,2.75,12.59,12.59,0,0,1,2.76,4.18,13.23,13.23,0,0,1,1,5.09v44.68a13.19,13.19,0,0,1-1,5.09,12.46,12.46,0,0,1-6.93,6.93,13.26,13.26,0,0,1-5.09,1h-7.78a13.23,13.23,0,0,1-5.09-1,12.42,12.42,0,0,1-4.17-2.75,12.59,12.59,0,0,1-2.76-4.18,13.19,13.19,0,0,1-1-5.09V151.9a13.23,13.23,0,0,1,1-5.09,12.46,12.46,0,0,1,6.93-6.93,13.23,13.23,0,0,1,5.09-1Zm3,13a3,3,0,0,0-.85-2,2.77,2.77,0,0,0-2.12-.91h-7.78a3.14,3.14,0,0,0-3,3v44.56a3,3,0,0,0,.92,2.19,2.82,2.82,0,0,0,2,.91h7.78a2.77,2.77,0,0,0,2.12-.91,3.14,3.14,0,0,0,.85-2.19Z"/><path class="cls-5" d="M979.76,166.89A6.2,6.2,0,0,1,975.1,165a6.38,6.38,0,0,1-1.84-4.6v-14.7a6.38,6.38,0,0,1,1.84-4.6,6.2,6.2,0,0,1,4.66-1.91h3.82a6.52,6.52,0,0,1,6.51,6.51v14.7a6.52,6.52,0,0,1-6.51,6.51Zm26.49-27.3-24.81,70h-6.77l24.81-70Zm-28,20.79c0,1,.51,1.42,1.55,1.42h3.82c1,0,1.56-.47,1.56-1.42v-14.7a1.38,1.38,0,0,0-1.56-1.56h-3.82a1.37,1.37,0,0,0-1.55,1.56Zm23,21.64a6.19,6.19,0,0,1,4.56,1.91,6.28,6.28,0,0,1,1.89,4.59v14.57a6.2,6.2,0,0,1-1.89,4.66,6.32,6.32,0,0,1-4.56,1.84h-3.93a6.26,6.26,0,0,1-4.55-1.84,6.17,6.17,0,0,1-1.9-4.66V188.52a6.25,6.25,0,0,1,1.9-4.59,6.13,6.13,0,0,1,4.55-1.91Zm1.5,6.5c0-1-.47-1.55-1.41-1.55h-4c-.95,0-1.42.52-1.42,1.55v14.57c0,1,.47,1.55,1.42,1.55h4c.94,0,1.41-.51,1.41-1.55Z"/><circle class="cls-3" cx="205.25" cy="93.83" r="21.01"/><circle class="cls-3" cx="1308.6" cy="93.83" r="21.01"/><circle class="cls-3" cx="1676.38" cy="93.83" r="21.01"/></g></svg>