<svg xmlns="http://www.w3.org/2000/svg" viewBox="0 0 1920 1080"><defs><style>.cls-1{fill:#ee273e;}.cls-2{fill:#575858;}.cls-3{fill:#131112;}.cls-4{fill:#231f20;}</style></defs><title>roadmapfromillustrator</title><g id="Layer_2" data-name="Layer 2"><path class="cls-1" d="M.92,860.64q0-428-.1-856C.82.85,1.67,0,5.43,0Q963.87.15,1922.3,0c3.76,0,4.61.85,4.61,4.61q-.15,474.15-.1,948.3c-4.17,0-8.35,0-12.52,0-72.37.51-144.73-.12-217-3q-23-.93-46-2.25-31.74-1.75-63.48-3.75-17-1-34-2.3-24.19-1.79-48.39-3.71-20.45-1.6-40.88-3.33c-13.78-1.18-27.56-2.44-41.34-3.69-12-1.08-23.9-2.15-35.84-3.31-15.76-1.52-31.5-3.13-47.25-4.71-14.25-1.43-28.51-2.81-42.75-4.31s-28.47-3.16-42.71-4.69c-13.91-1.49-27.83-2.85-41.74-4.35-14.07-1.52-28.13-3.14-42.19-4.7L1131,900.41c-13.73-1.54-27.46-3.11-41.19-4.63-13.24-1.47-26.48-2.89-39.72-4.36-13.9-1.54-27.79-3.14-41.69-4.67-13.4-1.48-26.82-2.9-40.23-4.35q-21.6-2.34-43.2-4.67-21.12-2.25-42.25-4.39c-15.24-1.56-30.48-3.16-45.74-4.63-15.59-1.5-31.19-2.86-46.79-4.3-17.1-1.57-34.18-3.25-51.29-4.7-14.28-1.22-28.6-2.15-42.89-3.26-15.8-1.23-31.58-2.67-47.39-3.75-18-1.23-36-2.17-54-3.22-21.83-1.29-43.65-2.74-65.49-3.78-24-1.15-48.07-1.94-72.1-2.83-6-.22-12-.9-18,.21-8.4,1.57-16.8,2.84-25.36,2.5-20.53-.82-41.05-1.68-61.6-.58-4.48-.88-9-.28-13.49-.32-14.13-.14-28.19-2.67-42.38-1.14-8.11.88-16.26,1.78-24.4,2-20,.42-40-.17-60,.87-18.62,1-37.33-.37-56,.57-9.66-.2-19.24.92-28.85,1.67-18.4,1.45-36.84,2.47-55.2,4.25C48.08,855.15,24.51,858,.92,860.64Z"/><path class="cls-2" d="M155.75,846.93c18.67-.94,37.38.41,56-.57,20-1,40-.45,60-.87,8.14-.17,16.29-1.07,24.4-2,14.19-1.53,28.25,1,42.38,1.14,4.49,0,9-.56,13.49.32,12.44,5.74,24.9,11.44,37.31,17.22,31.12,14.5,62.94,26.95,96.57,34.47,53,11.86,106.81,14.56,160.77,15.84,34.58.82,69.19.52,103.79.86,47.64.47,95.16,2.52,142.59,7.12,40.56,3.93,80.92,9.28,121.17,15.51,60.23,9.32,120.15,20.47,180.13,31.2,58,10.37,116.13,20.19,174.62,27.49,42.24,5.27,84.62,9.24,127.08,12.46,36.14,2.75,72.32,4.85,108.51,6.63s72.44,3,108.68,4c45.27,1.27,90.55,2.14,135.83,3.06,25.9.53,51.8.83,77.7,1.23,0,19.39,0,38.78.07,58.17,0,2.51-.57,3.49-3.08,3a8.34,8.34,0,0,0-1.5,0H650.91a30.65,30.65,0,0,0-3.33-1c-39.56-6.39-78.92-13.85-118-22.67-81.16-18.31-161.33-40.41-241.4-62.86a179.92,179.92,0,0,1-82.71-49.92c-24.51-25.69-40.23-56.36-50-90.29C154.49,853.25,154.17,850.11,155.75,846.93Z"/><path class="cls-3" d="M1926.81,1022.12c-25.9-.4-51.8-.7-77.7-1.23-45.28-.92-90.56-1.79-135.83-3.06-36.24-1-72.48-2.24-108.68-4s-72.37-3.88-108.51-6.63c-42.46-3.22-84.84-7.19-127.08-12.46-58.49-7.3-116.6-17.12-174.62-27.49-60-10.73-119.9-21.88-180.13-31.2-40.25-6.23-80.61-11.58-121.17-15.51-47.43-4.6-95-6.65-142.59-7.12-34.6-.34-69.21,0-103.79-.86-54-1.28-107.81-4-160.77-15.84-33.63-7.52-65.45-20-96.57-34.47C377,856.44,364.5,850.74,352.06,845c20.55-1.1,41.07-.24,61.6.58,8.56.34,17-.93,25.36-2.5,6-1.11,12-.43,18-.21,24,.89,48.07,1.68,72.1,2.83,21.84,1,43.66,2.49,65.49,3.78,18,1,36,2,54,3.22,15.81,1.08,31.59,2.52,47.39,3.75,14.29,1.11,28.61,2,42.89,3.26,17.11,1.45,34.19,3.13,51.29,4.7,15.6,1.44,31.2,2.8,46.79,4.3,15.26,1.47,30.5,3.07,45.74,4.63q21.14,2.17,42.25,4.39,21.6,2.29,43.2,4.67c13.41,1.45,26.83,2.87,40.23,4.35,13.9,1.53,27.79,3.13,41.69,4.67,13.24,1.47,26.48,2.89,39.72,4.36,13.73,1.52,27.46,3.09,41.19,4.63l39.72,4.39c14.06,1.56,28.12,3.18,42.19,4.7,13.91,1.5,27.83,2.86,41.74,4.35,14.24,1.53,28.46,3.19,42.71,4.69s28.5,2.88,42.75,4.31c15.75,1.58,31.49,3.19,47.25,4.71,11.94,1.16,23.89,2.23,35.84,3.31,13.78,1.25,27.56,2.51,41.34,3.69q20.43,1.74,40.88,3.33,24.19,1.9,48.39,3.71,17,1.26,34,2.3,31.74,2,63.48,3.75,23,1.29,46,2.25c72.32,2.92,144.68,3.55,217,3,4.17,0,8.35,0,12.52,0Z"/><path class="cls-3" d="M155.75,846.93c-1.58,3.18-1.26,6.32-.3,9.68,9.78,33.93,25.5,64.6,50,90.29a179.92,179.92,0,0,0,82.71,49.92c80.07,22.45,160.24,44.55,241.4,62.86,39.09,8.82,78.45,16.28,118,22.67a30.65,30.65,0,0,1,3.33,1q-322.74,0-645.48.09c-3.76,0-4.62-.85-4.61-4.61Q1,969.72.92,860.64c23.59-2.62,47.16-5.49,70.78-7.79,18.36-1.78,36.8-2.8,55.2-4.25C136.51,847.85,146.09,846.73,155.75,846.93Z"/></g><g id="Layer_3" data-name="Layer 3"><path d="M249.55,667.43l-4.5-9.49.75-.45,4,3.31c.49-5.45,1.57-10.06,6.46-13.86l-.32,6.61.77.66,9.49-9.29L266,649.4c6.75-1.31,12.93-.52,19.1,4.54l-6.3.6c2.31,5.44,6.48,10.13,6.07,16.3l-1.06.76-3.26-5-1.27.62c-.35,2.81-1.13,5.66-.94,8.43.26,3.74-1.67,5.88-4.3,7.78-4.71,3.4-4.77,3.46.16,6.44,3.91,2.36,7.92,4.56,11.95,6.69a7.63,7.63,0,0,1,4.2,7.52c-.4,11.48-1,22.94-1.55,34.41a11.7,11.7,0,0,0,.11,3,91.11,91.11,0,0,1,1.24,30.69c-.94,8,1,15.39,1.72,23,1,10.14,1.62,20.11-.87,30.22-3.05,12.37-5.27,24.95-8,37.42a5.68,5.68,0,0,1-1.92,3.2c-2.11,1.52-2.27,3.33-1.08,5.23a80,80,0,0,0,5,6.87c2,2.5,2,3.67-.95,5.18a55.55,55.55,0,0,1-8.23,3.06c-1.62.54-3.32.84-5,1.23-6.78,1.59-10-3.85-14.1-7.31-2.62-2.2-5-4.71-4.45-8.78.12-.84-.91-2.2-1.78-2.76a7,7,0,0,1-3.54-6.33c.32-11.79.77-23.57,1.1-35.35.19-6.48.29-12.87-1.09-19.38-2.79-13.23-5.19-26.58-6.76-40-.58-4.87-1.26-8.91-4.79-12.39-2.31-2.28-4.23-4.94-6.37-7.39-2.86-3.26-4.79-6.55-3-11.25,1.42-3.78,2-7.87,2.94-11.82.12-.49.4-1.1.22-1.48-2-4.59,1.06-8.61,1.36-12.92,0-.4.3-.81.26-1.19-.68-6.34,3.56-9.48,8-12.58,4.84-3.37,9.68-6.75,14.27-10.44,3.65-2.94,3.23-4.71.07-8.17-1.92-2.11-3.12-5-4.3-7.61C248.56,669.69,249.33,668.37,249.55,667.43Zm18.5,163.3c2.09-4.33,4.14-8.57,6.16-12.83a2.16,2.16,0,0,0,.28-1.45c-1.72-4.73-3.5-9.44-5.28-14.15l-1.16.3ZM243.73,728.11c-5.17,6.28-5.08,10.15.29,15.52C246.45,738.42,244.62,733.47,243.73,728.11Z"/><rect class="cls-3" x="-13.14" y="85.63" width="1973.56" height="16.41"/><circle class="cls-3" cx="186.16" cy="93.83" r="31.51"/><circle class="cls-3" cx="553.28" cy="93.83" r="21.01"/><circle class="cls-3" cx="930.9" cy="93.83" r="21.01"/><circle class="cls-3" cx="1308.53" cy="93.83" r="21.01"/><circle class="cls-3" cx="1686.15" cy="93.83" r="21.01"/><path class="cls-4" d="M173.57,138.89a13.23,13.23,0,0,1,5.09,1,12.54,12.54,0,0,1,6.93,6.93,13.23,13.23,0,0,1,1,5.09v44.68a13.19,13.19,0,0,1-1,5.09,12.46,12.46,0,0,1-6.93,6.93,13.23,13.23,0,0,1-5.09,1h-7.78a13.23,13.23,0,0,1-5.09-1,12.46,12.46,0,0,1-6.93-6.93,13.19,13.19,0,0,1-1-5.09V151.9a13.23,13.23,0,0,1,1-5.09,12.54,12.54,0,0,1,6.93-6.93,13.23,13.23,0,0,1,5.09-1Zm3,13a3,3,0,0,0-.85-2,2.78,2.78,0,0,0-2.12-.92h-7.78a3.16,3.16,0,0,0-3,3v44.56a3,3,0,0,0,.92,2.19,2.84,2.84,0,0,0,2,.91h7.78a2.77,2.77,0,0,0,2.12-.91,3.14,3.14,0,0,0,.85-2.19Z"/><path class="cls-4" d="M203.26,166.89A6.2,6.2,0,0,1,198.6,165a6.38,6.38,0,0,1-1.84-4.6v-14.7a6.38,6.38,0,0,1,1.84-4.6,6.2,6.2,0,0,1,4.66-1.91h3.82a6.52,6.52,0,0,1,6.51,6.51v14.7a6.52,6.52,0,0,1-6.51,6.51Zm26.49-27.3-24.81,70h-6.77l24.81-70Zm-28,20.79c0,1,.51,1.42,1.55,1.42h3.82c1,0,1.56-.47,1.56-1.42v-14.7a1.38,1.38,0,0,0-1.56-1.56h-3.82a1.37,1.37,0,0,0-1.55,1.56Zm23,21.64a6.17,6.17,0,0,1,4.56,1.91,6.28,6.28,0,0,1,1.89,4.59v14.57a6.24,6.24,0,0,1-1.89,4.67,6.33,6.33,0,0,1-4.56,1.83h-3.93a6.31,6.31,0,0,1-4.55-1.83,6.21,6.21,0,0,1-1.9-4.67V188.52a6.25,6.25,0,0,1,1.9-4.59,6.15,6.15,0,0,1,4.55-1.91Zm1.5,6.5c0-1-.47-1.55-1.41-1.55h-4c-1,0-1.42.52-1.42,1.55v14.57c0,1,.47,1.55,1.42,1.55h4c.94,0,1.41-.51,1.41-1.55Z"/></g></svg>