<svg xmlns="http://www.w3.org/2000/svg" viewBox="0 0 1926.09 1083.42"><defs><style>.cls-1{fill:#ee273e;}.cls-2{fill:#575858;}.cls-3{fill:#131112;}.cls-4{fill:#efa3a3;}.cls-5{fill:#231f20;}</style></defs><title>roadmapfromillustrator</title><g id="Layer_2" data-name="Layer 2"><path class="cls-1" d="M.1,860.64q0-428-.1-856C0,.85.85,0,4.61,0Q963.05.15,1921.48,0c3.76,0,4.61.85,4.61,4.61q-.15,474.15-.1,948.3c-4.17,0-8.35,0-12.52,0-72.37.51-144.73-.12-217-3q-23-.93-46-2.25-31.74-1.75-63.48-3.75-17-1-34-2.3-24.2-1.79-48.39-3.71-20.44-1.6-40.88-3.33c-13.78-1.18-27.56-2.44-41.34-3.69-11.95-1.08-23.9-2.15-35.84-3.31-15.75-1.52-31.5-3.13-47.25-4.71-14.25-1.43-28.51-2.81-42.75-4.31s-28.47-3.16-42.71-4.69c-13.91-1.49-27.83-2.85-41.74-4.35-14.07-1.52-28.13-3.14-42.19-4.7l-39.72-4.39c-13.73-1.54-27.46-3.11-41.19-4.63-13.24-1.47-26.48-2.89-39.72-4.36-13.9-1.54-27.79-3.14-41.69-4.67-13.4-1.48-26.82-2.9-40.22-4.35q-21.62-2.34-43.21-4.67-21.12-2.25-42.25-4.39c-15.24-1.56-30.48-3.16-45.74-4.63-15.59-1.5-31.19-2.86-46.79-4.3-17.1-1.57-34.18-3.25-51.29-4.7-14.28-1.22-28.6-2.15-42.89-3.26-15.8-1.23-31.58-2.67-47.38-3.75-18-1.23-36-2.17-54-3.22-21.83-1.29-43.65-2.74-65.49-3.78-24-1.15-48.07-1.94-72.1-2.83-6-.22-12.05-.9-18,.21-8.39,1.57-16.8,2.84-25.36,2.5-20.53-.82-41-1.68-61.6-.58-4.48-.88-9-.28-13.49-.32-14.13-.14-28.19-2.67-42.38-1.14-8.11.88-16.26,1.78-24.4,2-20,.42-40-.17-60,.87-18.61,1-37.33-.37-56,.57-9.66-.2-19.24.92-28.85,1.67-18.4,1.45-36.83,2.47-55.2,4.25C47.26,855.15,23.69,858,.1,860.64Z"/><path class="cls-2" d="M154.93,846.93c18.67-.94,37.39.41,56-.57,20-1,40-.45,60-.87,8.14-.17,16.29-1.07,24.4-2,14.19-1.53,28.25,1,42.38,1.14,4.49,0,9-.56,13.49.32,12.44,5.74,24.9,11.44,37.31,17.22,31.12,14.5,62.94,26.95,96.57,34.47,53,11.86,106.81,14.56,160.77,15.84,34.59.82,69.19.52,103.79.86,47.65.47,95.16,2.52,142.59,7.12,40.56,3.93,80.93,9.28,121.17,15.51,60.23,9.32,120.15,20.47,180.13,31.2,58,10.37,116.13,20.19,174.62,27.49,42.24,5.27,84.62,9.24,127.08,12.46,36.14,2.75,72.32,4.85,108.51,6.63s72.44,3,108.68,4c45.27,1.27,90.55,2.14,135.83,3.06,25.9.53,51.8.83,77.7,1.23,0,19.39,0,38.78.07,58.17,0,2.51-.57,3.49-3.08,3a8.34,8.34,0,0,0-1.5,0H650.09a30.65,30.65,0,0,0-3.33-1c-39.56-6.39-78.92-13.85-118-22.67-81.16-18.31-161.33-40.41-241.4-62.86a179.92,179.92,0,0,1-82.71-49.92c-24.5-25.69-40.23-56.36-50-90.29C153.67,853.25,153.35,850.11,154.93,846.93Z"/><path class="cls-3" d="M1926,1022.12c-25.9-.4-51.8-.7-77.7-1.23-45.28-.92-90.56-1.79-135.83-3.06-36.24-1-72.48-2.24-108.68-4s-72.37-3.88-108.51-6.63c-42.46-3.22-84.84-7.19-127.08-12.46-58.49-7.3-116.6-17.12-174.62-27.49-60-10.73-119.9-21.88-180.13-31.2-40.24-6.23-80.61-11.58-121.17-15.51-47.43-4.6-94.94-6.65-142.59-7.12-34.6-.34-69.2,0-103.79-.86-54-1.28-107.81-4-160.77-15.84-33.63-7.52-65.45-20-96.57-34.47-12.41-5.78-24.87-11.48-37.31-17.22,20.55-1.1,41.07-.24,61.6.58,8.56.34,17-.93,25.36-2.5,5.95-1.11,12-.43,18-.21,24,.89,48.07,1.68,72.1,2.83,21.84,1,43.66,2.49,65.49,3.78,18,1,36,2,54,3.22,15.8,1.08,31.58,2.52,47.38,3.75,14.29,1.11,28.61,2,42.89,3.26,17.11,1.45,34.19,3.13,51.29,4.7,15.6,1.44,31.2,2.8,46.79,4.3,15.26,1.47,30.5,3.07,45.74,4.63q21.14,2.17,42.25,4.39,21.6,2.29,43.21,4.67c13.4,1.45,26.82,2.87,40.22,4.35,13.9,1.53,27.79,3.13,41.69,4.67,13.24,1.47,26.48,2.89,39.72,4.36,13.73,1.52,27.46,3.09,41.19,4.63l39.72,4.39c14.06,1.56,28.12,3.18,42.19,4.7,13.91,1.5,27.83,2.86,41.74,4.35,14.24,1.53,28.46,3.19,42.71,4.69s28.5,2.88,42.75,4.31c15.75,1.58,31.5,3.19,47.25,4.71,11.94,1.16,23.89,2.23,35.84,3.31,13.78,1.25,27.56,2.51,41.34,3.69q20.43,1.74,40.88,3.33,24.2,1.9,48.39,3.71,17,1.26,34,2.3,31.74,2,63.48,3.75,23,1.29,46,2.25c72.31,2.92,144.67,3.55,217,3,4.17,0,8.35,0,12.52,0Z"/><path class="cls-3" d="M154.93,846.93c-1.58,3.18-1.26,6.32-.29,9.68,9.77,33.93,25.5,64.6,50,90.29a179.92,179.92,0,0,0,82.71,49.92c80.07,22.45,160.24,44.55,241.4,62.86,39.09,8.82,78.45,16.28,118,22.67a30.65,30.65,0,0,1,3.33,1q-322.74,0-645.48.09c-3.76,0-4.62-.85-4.61-4.61Q.2,969.72.1,860.64c23.59-2.62,47.16-5.49,70.78-7.79,18.37-1.78,36.8-2.8,55.2-4.25C135.69,847.85,145.27,846.73,154.93,846.93Z"/><path class="cls-4" d="M446.43,809.8a72.35,72.35,0,0,1-12-143.7,81.82,81.82,0,0,0-12.7-1,80.33,80.33,0,1,0,56.59,137.33A72,72,0,0,1,446.43,809.8Z"/></g><g id="Layer_3" data-name="Layer 3"><path d="M474,891.18c-3,7-5.85,14-9.12,20.82-2.58,5.37-5.77,10.45-8.54,15.73a45,45,0,0,0-2.33,6.15c-1.08,3.12-2.08,6.26-3.14,9.38-2,6,1.39,10,4.81,14.15a35.13,35.13,0,0,1,5.28,8.74c1.62,3.93.37,5.68-3.8,6.34-1.34.21-3,.56-4.08,0-6-3.15-12.82-4.72-18-9.63a30.88,30.88,0,0,0-8.81-5.44c-7.43-3.26-8.81-8-3.13-14,2.45-2.59,2.54-3.82-.38-5.6-2.2-1.34-2.76-3.25-1.66-5.72,2.75-6.2,5.19-12.55,8.13-18.66,7.62-15.89,15.5-31.65,23.11-47.55a11,11,0,0,0,.61-5.62q-2.81-28.86-5.83-57.69a14.81,14.81,0,0,0-1.55-6c-4.4-7.28.8-15.09-1.51-22.46-.6-1.9-.48-4-.69-6l-1.4-.39q-5.12,11.84-10.22,23.69c-.77,1.78-1.65,3.53-2.28,5.36-1.21,3.48-1.94,6.84,1.39,9.88,1.09,1,1.25,3,1.92,4.49,1.3,2.88,2.66,5.74,4.14,8.92-1.52,1.33-3.52,1.4-6.09-1a73,73,0,0,1-5.32-6.25c-5.49,5.39-4.19,11.94,3.07,15.34,3.65,1.71,6.1,4,7,8.67a12.42,12.42,0,0,1-2.91-.91c-1.35-.89-2.35-2.25-4.24-.55-.58.52-2.62.14-3.51-.49a156.26,156.26,0,0,1-13.24-10.2c-1.3-1.17-1.81-3.74-1.86-5.69a54.71,54.71,0,0,1,6.1-26c2.46-5,3.44-10.71,5-16.13,2.67-9.47,6-18.83,7.66-28.48,2-11.16,2.56-22.58,3.76-33.89a76.88,76.88,0,0,1,1.1-9.51c1.65-7,4-13.37,10.93-17.33,5.89-3.36,11.21-7.73,16.73-11.71a40.44,40.44,0,0,0,3.41-3.14c-5.78-2.61-8.68-7.4-7.88-13.69.2-1.6,2.21-3,3.86-5.06l-1.8-14.9,1-.22,6.91,6.28c3.2-8.34,5.48-16,13-21.75v13.78c7.36-4.21,14.08-7.28,22.64-5.67l-8.34,9c3.45,1.19,6.73,1.9,9.57,3.43a38.56,38.56,0,0,1,9.24,6.62c2.07,2.1-.38,3.25-2.21,3.29s-3.73-.72-6.13-1.24c.53,5.23,1.31,10.13,1.4,15,0,2.31,2.14,6.17-3,6.7-.38,0-1.21,3.9-.45,5.15,1.76,2.88,4.32,5.29,6.63,7.82a41,41,0,0,1,10.91,26.79c.26,6.65.91,13.68-.83,19.93-2.73,9.8.71,18.48,2.08,27.68a176.21,176.21,0,0,1,2,28.65c-.08,5.4-3.11,10.69-3.83,16.15-.85,6.55-1.67,13.41-.62,19.82,1,6.08-2,8.92-5.93,11.39-2.85,1.79-3.84,4-3.5,6.89,1.33,11.06-.46,21.78-2.38,32.65-1.29,7.31-.71,15-.73,22.48q0,12.53.39,25c.22,6.62.74,13.22,1.15,20.13l-3.57-.83c1.37,3.55,2,6.79,3.79,9.28,1.09,1.56,3.75,2.12,5.8,2.86,3.77,1.36,7.62,2.49,11.42,3.78,2.4.81,4.61,2.3,3.94,5-.55,2.22-1.78,5.07-3.57,6.05A22.26,22.26,0,0,1,507,972.62a50.19,50.19,0,0,0-17.5-3c-6.34-.11-7.62-1.27-7.81-7.48-.1-3.33.15-6.69-.13-10-.26-3.1-1-6.15-1.53-9.23a8.89,8.89,0,0,1-.27-2.88c2.06-11.53-1.16-22.65-2.58-33.9-.62-5-1.59-9.87-2.4-14.8Z"/><path class="cls-5" d="M559,141.94a13.82,13.82,0,0,1,4.17,2.82,12.68,12.68,0,0,1,3.75,9.1l-.29,8.89h-.14a22.12,22.12,0,0,1-3.75,8.32q-3.18,4.8-8.83,12.14-1.56,2-3.4,4.37c-1.22,1.6-2.38,3.18-3.46,4.73s-2,3-2.83,4.3a9.07,9.07,0,0,0-1.34,3v1.7l13.57-.15h-.14c.28,0,.92,0,1.91-.14a21.89,21.89,0,0,0,3-.49c1-.24,1.88-.5,2.69-.78s1.2-.66,1.2-1.13h1.27v12.73H532.88V199.57q0-3.82,3.46-9.12T546,177.23q1.41-2,3.25-4.39c1.22-1.6,2.36-3.13,3.39-4.59s1.93-2.81,2.69-4a8.45,8.45,0,0,0,1.27-2.83l.29-7.5a3,3,0,0,0-.85-2,2.79,2.79,0,0,0-2.12-.92h-7.78a2.76,2.76,0,0,0-2.12.92,3,3,0,0,0-.85,2v1.49a16.89,16.89,0,0,0,.14,2.12,5,5,0,0,0,.64,1.91,1.62,1.62,0,0,0,1.48.85v1.27h-12.3v-7.64a12.74,12.74,0,0,1,1-5,12.88,12.88,0,0,1,2.76-4.1,13.43,13.43,0,0,1,4.17-2.83,12.58,12.58,0,0,1,5.09-1.06H554A12.62,12.62,0,0,1,559,141.94Z"/><path class="cls-5" d="M599.53,165.49a12.5,12.5,0,0,1,6.88,6.93,13.23,13.23,0,0,1,1,5.09v20.64a13.28,13.28,0,0,1-1,5.1,12.65,12.65,0,0,1-2.76,4.17,13.67,13.67,0,0,1-4.17,2.83,12.58,12.58,0,0,1-5.09,1.06h-7.78a12.58,12.58,0,0,1-5.09-1.06,13.67,13.67,0,0,1-4.17-2.83,12.65,12.65,0,0,1-2.76-4.17,13.28,13.28,0,0,1-1-5.1V184.3h12.73v1.13c-.47,0-.87.35-1.2,1.06a11.26,11.26,0,0,0-.78,2.4c-.19.9-.35,1.79-.5,2.69a14.7,14.7,0,0,0-.21,1.77v4.8a3,3,0,0,0,.91,2.2,3,3,0,0,0,2.17.92h7.7a2.83,2.83,0,0,0,2-.92,3.06,3.06,0,0,0,.91-2.2V177.51a3.16,3.16,0,0,0-3-3H573.6V140.88h31.68v12.73H604c0-.38-.4-.75-1.19-1.13a11,11,0,0,0-2.74-.85c-1-.19-2-.35-3-.49a15,15,0,0,0-1.83-.22H583.64V164.5h10.83A13.11,13.11,0,0,1,599.53,165.49Z"/><path class="cls-5" d="M624.51,168.6a6.22,6.22,0,0,1-4.67-1.91,6.4,6.4,0,0,1-1.84-4.6v-14.7a6.42,6.42,0,0,1,1.84-4.6,6.22,6.22,0,0,1,4.67-1.91h3.82a6.52,6.52,0,0,1,6.5,6.51v14.7a6.52,6.52,0,0,1-6.5,6.51ZM651,141.31l-24.81,70h-6.76l24.81-70Zm-28,20.78c0,.95.52,1.42,1.56,1.42h3.82c1,0,1.55-.47,1.55-1.42v-14.7a1.38,1.38,0,0,0-1.55-1.56h-3.82a1.38,1.38,0,0,0-1.56,1.56Zm23,21.64a6.19,6.19,0,0,1,4.55,1.91,6.31,6.31,0,0,1,1.9,4.6V204.8a6.25,6.25,0,0,1-1.9,4.67,6.32,6.32,0,0,1-4.55,1.84H642a6.33,6.33,0,0,1-4.56-1.84,6.24,6.24,0,0,1-1.89-4.67V190.24a6.3,6.3,0,0,1,1.89-4.6,6.19,6.19,0,0,1,4.56-1.91Zm1.5,6.51c0-1-.48-1.56-1.42-1.56h-4q-1.41,0-1.41,1.56V204.8q0,1.56,1.41,1.56h4c.94,0,1.42-.52,1.42-1.56Z"/><circle class="cls-3" cx="581.06" cy="95.55" r="31.51"/><rect class="cls-3" x="-15.82" y="87.34" width="1973.56" height="16.41"/><circle class="cls-3" cx="580.13" cy="95.55" r="21.01"/><circle class="cls-3" cx="212.35" cy="95.55" r="21.01"/><circle class="cls-3" cx="947.91" cy="95.55" r="21.01"/><circle class="cls-3" cx="1315.69" cy="95.55" r="21.01"/><circle class="cls-3" cx="1683.48" cy="95.55" r="21.01"/></g></svg>