<svg xmlns="http://www.w3.org/2000/svg" viewBox="0 0 1920 1080"><defs><style>.cls-1{fill:#ee273e;}.cls-2{fill:#575858;}.cls-3{fill:#131112;}.cls-4{fill:#efa3a3;}.cls-5{fill:#231f20;}</style></defs><title>roadmapfromillustrator</title><g id="Layer_2" data-name="Layer 2"><path class="cls-1" d="M.92,860.64q0-428-.1-856C.82.85,1.67,0,5.43,0Q963.87.15,1922.3,0c3.76,0,4.61.85,4.61,4.61q-.15,474.15-.1,948.3c-4.17,0-8.35,0-12.52,0-72.37.51-144.73-.12-217-3q-23-.93-46-2.25-31.74-1.75-63.48-3.75-17-1-34-2.3-24.19-1.79-48.39-3.71-20.45-1.6-40.88-3.33c-13.78-1.18-27.56-2.44-41.34-3.69-12-1.08-23.9-2.15-35.84-3.31-15.76-1.52-31.5-3.13-47.25-4.71-14.25-1.43-28.51-2.81-42.75-4.31s-28.47-3.16-42.71-4.69c-13.91-1.49-27.83-2.85-41.74-4.35-14.07-1.52-28.13-3.14-42.19-4.7L1131,900.41c-13.73-1.54-27.46-3.11-41.19-4.63-13.24-1.47-26.48-2.89-39.72-4.36-13.9-1.54-27.79-3.14-41.69-4.67-13.4-1.48-26.82-2.9-40.23-4.35q-21.6-2.34-43.2-4.67-21.12-2.25-42.25-4.39c-15.24-1.56-30.48-3.16-45.74-4.63-15.59-1.5-31.19-2.86-46.79-4.3-17.1-1.57-34.18-3.25-51.29-4.7-14.28-1.22-28.6-2.15-42.89-3.26-15.8-1.23-31.58-2.67-47.39-3.75-18-1.23-36-2.17-54-3.22-21.83-1.29-43.65-2.74-65.49-3.78-24-1.15-48.07-1.94-72.1-2.83-6-.22-12-.9-18,.21-8.4,1.57-16.8,2.84-25.36,2.5-20.53-.82-41.05-1.68-61.6-.58-4.48-.88-9-.28-13.49-.32-14.13-.14-28.19-2.67-42.38-1.14-8.11.88-16.26,1.78-24.4,2-20,.42-40-.17-60,.87-18.62,1-37.33-.37-56,.57-9.66-.2-19.24.92-28.85,1.67-18.4,1.45-36.84,2.47-55.2,4.25C48.08,855.15,24.51,858,.92,860.64Z"/><path class="cls-2" d="M155.75,846.93c18.67-.94,37.38.41,56-.57,20-1,40-.45,60-.87,8.14-.17,16.29-1.07,24.4-2,14.19-1.53,28.25,1,42.38,1.14,4.49,0,9-.56,13.49.32,12.44,5.74,24.9,11.44,37.31,17.22,31.12,14.5,62.94,26.95,96.57,34.47,53,11.86,106.81,14.56,160.77,15.84,34.58.82,69.19.52,103.79.86,47.64.47,95.16,2.52,142.59,7.12,40.56,3.93,80.92,9.28,121.17,15.51,60.23,9.32,120.15,20.47,180.13,31.2,58,10.37,116.13,20.19,174.62,27.49,42.24,5.27,84.62,9.24,127.08,12.46,36.14,2.75,72.32,4.85,108.51,6.63s72.44,3,108.68,4c45.27,1.27,90.55,2.14,135.83,3.06,25.9.53,51.8.83,77.7,1.23,0,19.39,0,38.78.07,58.17,0,2.51-.57,3.49-3.08,3a8.34,8.34,0,0,0-1.5,0H650.91a30.65,30.65,0,0,0-3.33-1c-39.56-6.39-78.92-13.85-118-22.67-81.16-18.31-161.33-40.41-241.4-62.86a179.92,179.92,0,0,1-82.71-49.92c-24.51-25.69-40.23-56.36-50-90.29C154.49,853.25,154.17,850.11,155.75,846.93Z"/><path class="cls-3" d="M1926.81,1022.12c-25.9-.4-51.8-.7-77.7-1.23-45.28-.92-90.56-1.79-135.83-3.06-36.24-1-72.48-2.24-108.68-4s-72.37-3.88-108.51-6.63c-42.46-3.22-84.84-7.19-127.08-12.46-58.49-7.3-116.6-17.12-174.62-27.49-60-10.73-119.9-21.88-180.13-31.2-40.25-6.23-80.61-11.58-121.17-15.51-47.43-4.6-95-6.65-142.59-7.12-34.6-.34-69.21,0-103.79-.86-54-1.28-107.81-4-160.77-15.84-33.63-7.52-65.45-20-96.57-34.47C377,856.44,364.5,850.74,352.06,845c20.55-1.1,41.07-.24,61.6.58,8.56.34,17-.93,25.36-2.5,6-1.11,12-.43,18-.21,24,.89,48.07,1.68,72.1,2.83,21.84,1,43.66,2.49,65.49,3.78,18,1,36,2,54,3.22,15.81,1.08,31.59,2.52,47.39,3.75,14.29,1.11,28.61,2,42.89,3.26,17.11,1.45,34.19,3.13,51.29,4.7,15.6,1.44,31.2,2.8,46.79,4.3,15.26,1.47,30.5,3.07,45.74,4.63q21.14,2.17,42.25,4.39,21.6,2.29,43.2,4.67c13.41,1.45,26.83,2.87,40.23,4.35,13.9,1.53,27.79,3.13,41.69,4.67,13.24,1.47,26.48,2.89,39.72,4.36,13.73,1.52,27.46,3.09,41.19,4.63l39.72,4.39c14.06,1.56,28.12,3.18,42.19,4.7,13.91,1.5,27.83,2.86,41.74,4.35,14.24,1.53,28.46,3.19,42.71,4.69s28.5,2.88,42.75,4.31c15.75,1.58,31.49,3.19,47.25,4.71,11.94,1.16,23.89,2.23,35.84,3.31,13.78,1.25,27.56,2.51,41.34,3.69q20.43,1.74,40.88,3.33,24.19,1.9,48.39,3.71,17,1.26,34,2.3,31.74,2,63.48,3.75,23,1.29,46,2.25c72.32,2.92,144.68,3.55,217,3,4.17,0,8.35,0,12.52,0Z"/><path class="cls-3" d="M155.75,846.93c-1.58,3.18-1.26,6.32-.3,9.68,9.78,33.93,25.5,64.6,50,90.29a179.92,179.92,0,0,0,82.71,49.92c80.07,22.45,160.24,44.55,241.4,62.86,39.09,8.82,78.45,16.28,118,22.67a30.65,30.65,0,0,1,3.33,1q-322.74,0-645.48.09c-3.76,0-4.62-.85-4.61-4.61Q1,969.72.92,860.64c23.59-2.62,47.16-5.49,70.78-7.79,18.36-1.78,36.8-2.8,55.2-4.25C136.51,847.85,146.09,846.73,155.75,846.93Z"/><ellipse class="cls-4" cx="1129.11" cy="679.65" rx="127.39" ry="143.37"/></g><g id="Layer_1" data-name="Layer 1"><path d="M1261.78,1328.3h-82.21c-.41-11.86-.92-23.72-1.22-35.58-.85-34-1.93-67.92-2.26-101.88a397,397,0,0,1,2.27-42.76c1.68-16.91,2.57-33.45-5.56-49.26-2.17-4.21-3.15-9.12-4.14-13.82-5.32-25.29-10.74-50.56-15.58-75.94-2.62-13.75-3.65-27.8-6.36-41.52-1.71-8.68-3.38-17.53-10.58-24.38-4.53-4.32-7.34-10.47-10.86-15.84-5.18-7.9-10-16-15.51-23.7-9.55-13.37-21.5-25-27.22-41.08-1.67-4.7-2.44-8.73-.39-13.26,5.21-11.52,10.07-23.21,15.61-34.56,5.46-11.17,6-14.63.49-19.8,2.74-5.06,5.53-10.35,8.44-15.58,9.47-17,18.8-34.17,28.54-51.06,7.59-13.18,16.68-24.62,31.41-31.23,12.09-5.41,24.66-8.16,37.37-10.68,12.2-2.42,12.54-2.52,14.26-14.51.27-1.9,2.82-3.48,4.31-5.21l1.67,1.05,1.35-16.42,2.14-1.54c1,2.48,2,5,3,7.45l1.47-1.51c-1.11-22.1,8.66-44,21.06-46.35-1.2,3.85-2.33,7.52-3.47,11.2l1.17.73,32.6-26.8H1286c-.15,2,.28,4.23-.56,5.82-3.26,6.18-7,12.09-10.37,18.23-.82,1.5-.72,3.5-1,5.27l1.59,1.44,36.8-19.39,1.57,1.85-13.56,22.86c15.84-7.65,31.73-8.47,48.18-5.63a9.59,9.59,0,0,1-4.44,2.82c-8.06,2.65-13.72,8.09-18,15.21-2.05,3.44-2.61,6.6,1,9.61,13.7,11.56,21,27.28,27.11,43.5,1.94,5.13,1.79,11.05,2.82,18.08-8-5.4-14.52-10-21.27-14.24-7.35-4.6-12.34-2.47-14.89,5.63-4,12.88-10.07,24.91-20.7,33.36-6.49,5.17-6.73,10.61-4.9,17.24,5.1,18.53,10.25,36.93,13,56.12,1.76,12.34-5.39,18.13-11.66,25.56-2.21,2.62-4.89,5.53-5.52,8.68-2.81,14-4.95,28.09-7.35,42.15-2.19,12.85-3.3,25.82-.09,38.54,2.29,9.07,5.87,17.77,5.51,27.38-.29,7.8-.16,15.62-.33,23.43-.09,4.24-1.8,6.94-6.78,5.69a33.12,33.12,0,0,0-.4,3.33c-.21,25.32,0,50.65-.69,76-.84,32.17-2.32,64.31-3.67,96.46-.19,4.59-1.21,9.14-1.73,13.73-2.22,19.71-4.49,39.42-6.55,59.15-1.48,14.17-2.85,28.35-3.9,42.55C1263.81,1292.64,1262.88,1310.48,1261.78,1328.3ZM1143.91,831.62c-5,6-8.66,10.43-12.45,14.78-2.85,3.28-3,6.48-1,10.34,8.57,16.19,16.94,32.49,25.4,48.74,0,.08.31,0,1.26.17C1157.49,880.65,1148.83,857.48,1143.91,831.62Z"/></g><g id="Layer_3" data-name="Layer 3"><circle class="cls-3" cx="1308.6" cy="93.83" r="31.51"/><rect class="cls-3" x="-22.91" y="85.63" width="1973.56" height="16.41"/><circle class="cls-3" cx="573.03" cy="93.83" r="21.01"/><circle class="cls-3" cx="940.82" cy="93.83" r="21.01"/><path class="cls-5" d="M1256.5,139h32.24v11.59q0,3.4-2.47,10t-6.86,17.19q-1.28,3-2.69,6.57t-2.61,6.93c-.8,2.22-1.49,4.2-2,5.94a14.22,14.22,0,0,0-.85,3.61v.56c.09.66.21,1.39.35,2.19a15.06,15.06,0,0,0,.57,2.27,14,14,0,0,0,.7,1.76,1.05,1.05,0,0,0,.92.71v1.27h-15.27v-1.27c.38,0,.71-.3,1-.91a21.09,21.09,0,0,0,.85-2.19,17.75,17.75,0,0,0,.64-2.61c.14-.89.25-1.62.35-2.19v-.7a47.36,47.36,0,0,1,2.76-9.88q2.33-6.34,6.15-15.66c.85-2.07,1.77-4.32,2.76-6.77s1.9-4.77,2.75-7,1.56-4.19,2.12-5.93a13.9,13.9,0,0,0,.85-3.74v-1.69H1264c-.38,0-.9,0-1.56.07a12.06,12.06,0,0,0-2,.35,6.58,6.58,0,0,0-1.84.78,1.65,1.65,0,0,0-.78,1.49h-1.27Z"/><path class="cls-5" d="M1320.89,163.78a12.39,12.39,0,0,1,6.89,6.93,13.41,13.41,0,0,1,1,5.09v20.64a13.23,13.23,0,0,1-1,5.09,12.59,12.59,0,0,1-2.76,4.18,13.64,13.64,0,0,1-4.17,2.82,12.42,12.42,0,0,1-5.09,1.06H1308a12.45,12.45,0,0,1-5.09-1.06,13.64,13.64,0,0,1-4.17-2.82,12.59,12.59,0,0,1-2.76-4.18,13.23,13.23,0,0,1-1-5.09V182.58h12.73v1.14c-.47,0-.87.35-1.2,1.06a11.08,11.08,0,0,0-.78,2.4c-.19.9-.35,1.79-.49,2.69a15.44,15.44,0,0,0-.22,1.76v4.81a3,3,0,0,0,.91,2.19,2.94,2.94,0,0,0,2.17.92h7.7a2.77,2.77,0,0,0,2-.92,3,3,0,0,0,.91-2.19V175.8a3.16,3.16,0,0,0-3-3H1295V139.17h31.68V151.9h-1.26c0-.38-.4-.76-1.2-1.13a10.89,10.89,0,0,0-2.74-.85c-1-.19-2-.36-3-.5a16.58,16.58,0,0,0-1.82-.21H1305v13.58h10.83A13.08,13.08,0,0,1,1320.89,163.78Z"/><path class="cls-5" d="M1345.87,166.89a6.22,6.22,0,0,1-4.67-1.91,6.41,6.41,0,0,1-1.83-4.6v-14.7a6.41,6.41,0,0,1,1.83-4.6,6.22,6.22,0,0,1,4.67-1.91h3.82a6.5,6.5,0,0,1,6.5,6.51v14.7a6.5,6.5,0,0,1-6.5,6.51Zm26.48-27.3-24.8,70h-6.77l24.81-70Zm-28,20.79c0,1,.51,1.42,1.55,1.42h3.82c1,0,1.56-.47,1.56-1.42v-14.7a1.38,1.38,0,0,0-1.56-1.56h-3.82a1.37,1.37,0,0,0-1.55,1.56Zm23,21.64a6.15,6.15,0,0,1,4.55,1.91,6.25,6.25,0,0,1,1.9,4.59v14.57a6.21,6.21,0,0,1-1.9,4.67,6.31,6.31,0,0,1-4.55,1.83h-3.93a6.33,6.33,0,0,1-4.56-1.83,6.24,6.24,0,0,1-1.89-4.67V188.52a6.28,6.28,0,0,1,1.89-4.59,6.17,6.17,0,0,1,4.56-1.91Zm1.5,6.5c0-1-.47-1.55-1.41-1.55h-4c-1,0-1.42.52-1.42,1.55v14.57c0,1,.47,1.55,1.42,1.55h4c.94,0,1.41-.51,1.41-1.55Z"/><circle class="cls-3" cx="205.25" cy="93.83" r="21.01"/><circle class="cls-3" cx="1308.6" cy="93.83" r="21.01"/><circle class="cls-3" cx="1676.38" cy="93.83" r="21.01"/></g></svg>